<svg xmlns="http://www.w3.org/2000/svg" viewBox="0 0 512 512" width="512" height="512">
  <defs>
    <filter id="glow-blue" x="-50%" y="-50%" width="200%" height="200%">
      <feGaussianBlur in="SourceGraphic" stdDeviation="8" result="blur"/>
      <feColorMatrix in="blur" type="matrix"
        values="0 0 0 0 0.4  0 0 0 0 0.6  0 0 0 0 1  0 0 0 0.7 0" result="colored"/>
      <feMerge><feMergeNode in="colored"/><feMergeNode in="SourceGraphic"/></feMerge>
    </filter>
    <filter id="glow-pink" x="-50%" y="-50%" width="200%" height="200%">
      <feGaussianBlur in="SourceGraphic" stdDeviation="6" result="blur"/>
      <feColorMatrix in="blur" type="matrix"
        values="0 0 0 0 0.88  0 0 0 0 0.41  0 0 0 0 0.85  0 0 0 0.6 0" result="colored"/>
      <feMerge><feMergeNode in="colored"/><feMergeNode in="SourceGraphic"/></feMerge>
    </filter>
    <radialGradient id="bg" cx="50%" cy="45%" r="70%">
      <stop offset="0%" stop-color="#09122a"/>
      <stop offset="100%" stop-color="#010105"/>
    </radialGradient>
    <linearGradient id="bolt" x1="0%" y1="0%" x2="100%" y2="100%">
      <stop offset="0%" stop-color="#6698ff"/>
      <stop offset="50%" stop-color="#a07cff"/>
      <stop offset="100%" stop-color="#e068d8"/>
    </linearGradient>
  </defs>
  <rect width="512" height="512" rx="108" ry="108" fill="url(#bg)"/>
  <g opacity="0.06" stroke="#6698ff" stroke-width="1">
    <line x1="0" y1="128" x2="512" y2="128"/><line x1="0" y1="256" x2="512" y2="256"/>
    <line x1="0" y1="384" x2="512" y2="384"/><line x1="128" y1="0" x2="128" y2="512"/>
    <line x1="256" y1="0" x2="256" y2="512"/><line x1="384" y1="0" x2="384" y2="512"/>
  </g>
  <circle cx="256" cy="256" r="180" fill="none" stroke="#6698ff" stroke-width="2" opacity="0.15"/>
  <g filter="url(#glow-blue)">
    <path d="M175 100 L200 100 L185 230 L210 230 L180 420 L195 280 L170 280 Z"
          fill="url(#bolt)" opacity="0.95"/>
    <path d="M200 100 L320 100 Q380 100 380 170 Q380 240 320 240 L210 240 L210 230
             L315 230 Q365 230 365 170 Q365 115 315 115 L200 115 Z"
          fill="url(#bolt)" opacity="0.95"/>
  </g>
  <g filter="url(#glow-pink)">
    <polygon points="340,140 355,165 345,165 360,195 340,170 350,170" fill="#e068d8" opacity="0.7"/>
  </g>
  <circle cx="120" cy="140" r="4" fill="#e1a200" opacity="0.6"/>
  <circle cx="400" cy="120" r="3" fill="#00cacb" opacity="0.5"/>
  <circle cx="390" cy="380" r="5" fill="#30bd44" opacity="0.4"/>
  <circle cx="130" cy="400" r="3" fill="#ff2335" opacity="0.5"/>
</svg>
