<svg width="240" height="240" viewBox="0 0 240 240" fill="none" xmlns="http://www.w3.org/2000/svg">
  <defs>
    <linearGradient id="body" x1="86" y1="100" x2="156" y2="164" gradientUnits="userSpaceOnUse">
      <stop offset="0" stop-color="#FFE972" />
      <stop offset="0.52" stop-color="#FFD13D" />
      <stop offset="1" stop-color="#FF9D1F" />
    </linearGradient>
    <linearGradient id="wingFront" x1="98" y1="100" x2="144" y2="170" gradientUnits="userSpaceOnUse">
      <stop offset="0" stop-color="#52F6FF" />
      <stop offset="0.55" stop-color="#17D8FF" />
      <stop offset="1" stop-color="#0087FF" />
    </linearGradient>
    <linearGradient id="wingBack" x1="110" y1="88" x2="160" y2="158" gradientUnits="userSpaceOnUse">
      <stop offset="0" stop-color="#FF71D0" />
      <stop offset="0.5" stop-color="#FF43A4" />
      <stop offset="1" stop-color="#8F4DFF" />
    </linearGradient>
    <linearGradient id="tailCyan" x1="74" y1="120" x2="134" y2="166" gradientUnits="userSpaceOnUse">
      <stop offset="0" stop-color="#8BFFF8" />
      <stop offset="1" stop-color="#21D8D8" />
    </linearGradient>
    <linearGradient id="tailPink" x1="78" y1="108" x2="126" y2="154" gradientUnits="userSpaceOnUse">
      <stop offset="0" stop-color="#FF8BE6" />
      <stop offset="1" stop-color="#FF3CA6" />
    </linearGradient>
    <linearGradient id="crest" x1="124" y1="60" x2="170" y2="112" gradientUnits="userSpaceOnUse">
      <stop offset="0" stop-color="#FFD761" />
      <stop offset="0.5" stop-color="#FF9140" />
      <stop offset="1" stop-color="#FF4E8D" />
    </linearGradient>
    <linearGradient id="beak" x1="74" y1="118" x2="102" y2="134" gradientUnits="userSpaceOnUse">
      <stop offset="0" stop-color="#7DFF65" />
      <stop offset="1" stop-color="#39FF14" />
    </linearGradient>
    <radialGradient id="halo" cx="0" cy="0" r="1" gradientTransform="translate(120 122) rotate(90) scale(86)" gradientUnits="userSpaceOnUse">
      <stop offset="0" stop-color="#0F2556" stop-opacity="0.24" />
      <stop offset="0.55" stop-color="#0F2556" stop-opacity="0.08" />
      <stop offset="1" stop-color="#0F2556" stop-opacity="0" />
    </radialGradient>
    <linearGradient id="orbit" x1="56" y1="146" x2="184" y2="98" gradientUnits="userSpaceOnUse">
      <stop offset="0" stop-color="#19DDFF" />
      <stop offset="0.48" stop-color="#62FFE0" />
      <stop offset="1" stop-color="#FF49B2" />
    </linearGradient>
    <filter id="glow" x="-40%" y="-40%" width="180%" height="180%" color-interpolation-filters="sRGB">
      <feGaussianBlur in="SourceGraphic" stdDeviation="3.5" result="blur1" />
      <feColorMatrix
        in="blur1"
        type="matrix"
        values="1 0 0 0 0
                0 1 0 0 0
                0 0 1 0 0
                0 0 0 0.85 0"
        result="glowOut"
      />
      <feMerge>
        <feMergeNode in="glowOut" />
        <feMergeNode in="SourceGraphic" />
      </feMerge>
    </filter>
  </defs>

  <circle cx="120" cy="122" r="84" fill="url(#halo)" />
  <ellipse cx="120" cy="126" rx="66" ry="54" stroke="url(#orbit)" stroke-width="4" stroke-opacity="0.85" fill="none" />

  <g filter="url(#glow)" stroke-linecap="round" fill="none">
    <path d="M44 122C58 114 74 111 91 112" stroke="#31F2FF" stroke-width="5" stroke-opacity="0.85" />
    <path d="M52 144C68 138 84 136 98 136" stroke="#39FF14" stroke-width="5" stroke-opacity="0.78" />
    <path d="M58 98C70 91 82 88 95 88" stroke="#FF4DA7" stroke-width="5" stroke-opacity="0.76" />
  </g>

  <g filter="url(#glow)">
    <path d="M96 124C82 113 70 111 56 117C66 123 76 130 82 141C85 136 90 129 96 124Z" fill="url(#tailPink)" />
    <path d="M104 140C91 135 79 138 66 149C79 150 90 154 99 162C100 154 102 147 104 140Z" fill="url(#tailCyan)" />
    <ellipse cx="136" cy="116" rx="34" ry="22" transform="rotate(-28 136 116)" fill="url(#wingBack)" />
    <path d="M128 99C151 100 168 109 176 126C164 124 154 127 145 135C138 142 131 152 123 163C111 144 107 127 111 112C114 104 120 100 128 99Z" fill="url(#wingFront)" />
    <ellipse cx="121" cy="131" rx="38" ry="34" fill="url(#body)" />
    <ellipse cx="113" cy="138" rx="18" ry="13" fill="#FFF8D7" fill-opacity="0.45" />
    <path d="M86 122C74 122 64 126 56 133C67 136 77 139 85 145C89 137 90 129 86 122Z" fill="url(#beak)" />
    <circle cx="115" cy="120" r="8.6" fill="#0C1021" />
    <circle cx="118.4" cy="117.2" r="2.3" fill="white" />
    <path d="M92 133C101 130 110 132 116 140" stroke="#FF7BB7" stroke-width="4" stroke-linecap="round" />
    <path d="M115 96C124 79 140 69 163 66C157 77 154 89 156 102C147 96 140 94 133 95C126 95 120 96 115 96Z" fill="url(#crest)" />
    <path d="M126 90C139 76 155 70 174 73C166 80 161 90 160 102C150 95 139 91 126 90Z" fill="#FFC752" fill-opacity="0.82" />
  </g>

  <g filter="url(#glow)">
    <circle cx="176" cy="84" r="3.4" fill="#39FF14" />
    <circle cx="188" cy="104" r="2.4" fill="#24F0FF" />
    <circle cx="68" cy="84" r="2.7" fill="#FF4DA7" />
  </g>
</svg>
