<svg xmlns="http://www.w3.org/2000/svg" viewBox="0 0 64 64" width="64" height="64">
  <!-- Cup body (lower 60%) -->
  <path d="M18 28 L16 58 Q16 62 20 62 L44 62 Q48 62 48 58 L46 28 Z" fill="#f5f0e6" stroke="#d4c9b0" stroke-width="1"/>
  <!-- Cup lid -->
  <rect x="14" y="25" width="36" height="4" rx="2" fill="#e8dcc8" stroke="#d4c9b0" stroke-width="0.8"/>
  <!-- Lid dome opening -->
  <ellipse cx="32" cy="25" rx="14" ry="2" fill="#e8dcc8"/>

  <!-- Tapioca pearls inside cup -->
  <g>
    <circle cx="24" cy="54" r="2.5" fill="#3a2215">
      <animate attributeName="cy" values="54;50;54" dur="3s" repeatCount="indefinite"/>
    </circle>
    <circle cx="32" cy="56" r="2.5" fill="#3a2215">
      <animate attributeName="cy" values="56;52;56" dur="2.5s" repeatCount="indefinite" begin="0.4s"/>
    </circle>
    <circle cx="40" cy="53" r="2.5" fill="#3a2215">
      <animate attributeName="cy" values="53;49;53" dur="2.8s" repeatCount="indefinite" begin="0.8s"/>
    </circle>
    <circle cx="28" cy="50" r="2" fill="#4a3020">
      <animate attributeName="cy" values="50;46;50" dur="3.2s" repeatCount="indefinite" begin="0.2s"/>
    </circle>
    <circle cx="36" cy="51" r="2" fill="#4a3020">
      <animate attributeName="cy" values="51;47;51" dur="2.7s" repeatCount="indefinite" begin="0.6s"/>
    </circle>
  </g>

  <!-- Milk tea liquid -->
  <rect x="17" y="32" width="30" height="28" rx="1" fill="#d4a76a" opacity="0.4"/>

  <!-- Straw -->
  <g>
    <rect x="38" y="2" width="3" height="28" rx="1" fill="#e85d75"/>
    <rect x="38" y="2" width="3" height="4" rx="1" fill="#c94560"/>
    <animateTransform attributeName="transform" type="rotate" values="-2 39 28;2 39 28;-2 39 28" dur="2s" repeatCount="indefinite"/>
  </g>

  <!-- Bird head poking out of cup -->
  <circle cx="32" cy="18" r="12" fill="#ffd54f"/>
  <!-- Bird cheeks -->
  <circle cx="24" cy="20" r="3" fill="#ffb74d" opacity="0.5"/>
  <circle cx="40" cy="20" r="3" fill="#ffb74d" opacity="0.5"/>

  <!-- Eyes with blink -->
  <g>
    <circle cx="27" cy="16" r="2.5" fill="#fff"/>
    <circle cx="28" cy="16" r="1.5" fill="#2a1a0a"/>
    <circle cx="28.3" cy="15.5" r="0.5" fill="#fff"/>
    <circle cx="37" cy="16" r="2.5" fill="#fff"/>
    <circle cx="36" cy="16" r="1.5" fill="#2a1a0a"/>
    <circle cx="36.3" cy="15.5" r="0.5" fill="#fff"/>
    <!-- Blink overlay -->
    <ellipse cx="27" cy="16" rx="3" ry="2.5" fill="#ffd54f">
      <animate attributeName="ry" values="0;0;0;0;0;0;2.5;0;0;0;0;0;0;0;0;0;0;0;0;0" dur="5s" repeatCount="indefinite"/>
    </ellipse>
    <ellipse cx="37" cy="16" rx="3" ry="2.5" fill="#ffd54f">
      <animate attributeName="ry" values="0;0;0;0;0;0;2.5;0;0;0;0;0;0;0;0;0;0;0;0;0" dur="5s" repeatCount="indefinite"/>
    </ellipse>
  </g>

  <!-- Small beak -->
  <path d="M30 20 L32 23 L34 20 Z" fill="#ff8a65"/>
</svg>