<svg xmlns="http://www.w3.org/2000/svg" viewBox="0 0 64 64" width="64" height="64">
  <defs>
    <filter id="hpGlow">
      <feGaussianBlur stdDeviation="1.5" result="blur"/>
      <feMerge><feMergeNode in="blur"/><feMergeNode in="SourceGraphic"/></feMerge>
    </filter>
  </defs>
  <g>
    <animateTransform attributeName="transform" type="translate" values="0,0;0,-1.5;0,0;0,-1;0,0" dur="1s" repeatCount="indefinite"/>
    <circle cx="32" cy="36" r="22" fill="#7b2d8e"/>
    <ellipse cx="32" cy="42" rx="14" ry="12" fill="#9b4dba"/>
    <g>
      <path d="M22 44 Q24 50 32 52 Q40 50 42 44" fill="none" stroke="#ffd700" stroke-width="1.8" stroke-linecap="round">
        <animate attributeName="d" values="M22 44 Q24 50 32 52 Q40 50 42 44;M22 44 Q24 51 32 53 Q40 51 42 44;M22 44 Q24 50 32 52 Q40 50 42 44" dur="2s" repeatCount="indefinite"/>
      </path>
      <circle cx="32" cy="52" r="2.5" fill="#ffd700" stroke="#daa520" stroke-width="0.5">
        <animate attributeName="cy" values="52;53;52" dur="2s" repeatCount="indefinite"/>
      </circle>
      <text x="32" y="53.5" text-anchor="middle" font-size="3" fill="#8b6914" font-weight="bold">$</text>
    </g>
    <g>
      <ellipse cx="25" cy="34" rx="4" ry="2.5" fill="#fff"/>
      <circle cx="26" cy="34" r="1.8" fill="#1a0a2e"/>
      <circle cx="26.5" cy="33.5" r="0.5" fill="#fff"/>
      <ellipse cx="25" cy="33" rx="4.5" ry="2" fill="#7b2d8e"/>
      <ellipse cx="39" cy="34" rx="4" ry="2.5" fill="#fff"/>
      <circle cx="38" cy="34" r="1.8" fill="#1a0a2e"/>
      <circle cx="38.5" cy="33.5" r="0.5" fill="#fff"/>
      <ellipse cx="39" cy="33" rx="4.5" ry="2" fill="#7b2d8e"/>
    </g>
    <path d="M28 40 Q32 43 36 40" fill="none" stroke="#fff" stroke-width="1" stroke-linecap="round" opacity="0.8"/>
    <path d="M29 37 L32 41 L35 37 Z" fill="#e8a84c"/>
  </g>
  <g filter="url(#hpGlow)">
    <path d="M10 28 Q10 8 32 6 Q54 8 54 28" fill="none" stroke="#444" stroke-width="3"/>
    <rect x="4" y="22" width="12" height="14" rx="4" fill="#333" stroke="#555" stroke-width="0.8">
      <animate attributeName="fill" values="#333;#553388;#333" dur="1s" repeatCount="indefinite"/>
    </rect>
    <rect x="6" y="25" width="8" height="8" rx="2" fill="#222">
      <animate attributeName="fill" values="#222;#7b2d8e;#222" dur="1s" repeatCount="indefinite"/>
    </rect>
    <rect x="48" y="22" width="12" height="14" rx="4" fill="#333" stroke="#555" stroke-width="0.8">
      <animate attributeName="fill" values="#333;#553388;#333" dur="1s" repeatCount="indefinite" begin="0.5s"/>
    </rect>
    <rect x="50" y="25" width="8" height="8" rx="2" fill="#222">
      <animate attributeName="fill" values="#222;#7b2d8e;#222" dur="1s" repeatCount="indefinite" begin="0.5s"/>
    </rect>
  </g>
</svg>