<svg xmlns="http://www.w3.org/2000/svg" viewBox="0 0 64 64" width="64" height="64">
  <defs>
    <filter id="voidGlow">
      <feGaussianBlur stdDeviation="1.5" result="blur"/>
      <feMerge>
        <feMergeNode in="blur"/>
        <feMergeNode in="SourceGraphic"/>
      </feMerge>
    </filter>
  </defs>
  <!-- Dark aura cracks -->
  <g opacity="0.4">
    <animate attributeName="opacity" values="0.2;0.5;0.1;0.4;0.2" dur="3s" repeatCount="indefinite"/>
    <line x1="12" y1="24" x2="8" y2="18" stroke="#6B21A8" stroke-width="1"/>
    <line x1="50" y1="22" x2="56" y2="16" stroke="#7C3AED" stroke-width="0.8"/>
    <line x1="14" y1="42" x2="8" y2="48" stroke="#6B21A8" stroke-width="0.8"/>
    <line x1="52" y1="40" x2="58" y2="44" stroke="#7C3AED" stroke-width="1"/>
    <line x1="32" y1="8" x2="30" y2="3" stroke="#6B21A8" stroke-width="0.7"/>
  </g>
  <!-- Dark purple aura -->
  <ellipse cx="32" cy="34" rx="22" ry="20" fill="#2D1B4E" opacity="0.25">
    <animate attributeName="opacity" values="0.15;0.3;0.15" dur="4s" repeatCount="indefinite"/>
    <animate attributeName="rx" values="22;24;22" dur="4s" repeatCount="indefinite"/>
  </ellipse>
  <!-- Pure black body -->
  <ellipse cx="32" cy="34" rx="17" ry="16" fill="#0a0a0a"/>
  <!-- Subtle edge cracks -->
  <g opacity="0.3">
    <animate attributeName="opacity" values="0;0.4;0;0;0.3;0" dur="5s" repeatCount="indefinite"/>
    <path d="M18,26 L15,22" stroke="#7C3AED" stroke-width="0.8"/>
    <path d="M46,28 L49,24" stroke="#6B21A8" stroke-width="0.8"/>
    <path d="M20,44 L16,48" stroke="#7C3AED" stroke-width="0.7"/>
    <path d="M44,44 L48,47" stroke="#6B21A8" stroke-width="0.7"/>
  </g>
  <!-- Glowing white eyes -->
  <g filter="url(#voidGlow)">
    <!-- Left eye -->
    <ellipse cx="26" cy="32" rx="3" ry="3.5" fill="white" opacity="0.9">
      <animate attributeName="opacity" values="0.9;0.4;0.9;0.9;0.2;0.9" dur="3s" repeatCount="indefinite"/>
    </ellipse>
    <!-- Right eye -->
    <ellipse cx="38" cy="32" rx="3" ry="3.5" fill="white" opacity="0.9">
      <animate attributeName="opacity" values="0.9;0.9;0.4;0.9;0.9;0.2" dur="3s" repeatCount="indefinite" begin="0.2s"/>
    </ellipse>
  </g>
  <!-- Static glitch effect - brief horizontal lines -->
  <g opacity="0">
    <animate attributeName="opacity" values="0;0;0;0;0;0;0;0.6;0;0;0;0;0;0;0;0;0;0;0.4;0" dur="4s" repeatCount="indefinite"/>
    <rect x="15" y="30" width="34" height="1" fill="#7C3AED" opacity="0.5"/>
    <rect x="18" y="34" width="28" height="0.8" fill="white" opacity="0.3"/>
    <rect x="20" y="38" width="24" height="0.6" fill="#6B21A8" opacity="0.4"/>
  </g>
</svg>